@startuml
scale 1.2
[*] --> NotShooting

state NotShooting {
  [*] --> Idle
  Idle --> Configuring : EvConfig
  Configuring --> Idle : EvConfig
}

state Configuring {
  [*] --> NewValueSelection
  NewValueSelection --> NewValuePreview : EvNewValue
  NewValuePreview --> NewValueSelection : EvNewValueRejected
  NewValuePreview --> NewValueSelection : EvNewValueSaved

  state NewValuePreview {
     State1 -> State2
  }

}
@enduml

说明：
使用 [*] 来表示状态的起点
使用 state 来定义子状态图
状态图可以嵌套
使用 scale 命令来指定生成的图片的尺寸